<?xml version="1.0" encoding="utf-8"?>
<!-- Generator: Adobe Illustrator 22.0.0, SVG Export Plug-In . SVG Version: 6.00 Build 0)  -->
<svg version="1.1" id="lni_lni-code-browser" xmlns="http://www.w3.org/2000/svg" xmlns:xlink="http://www.w3.org/1999/xlink"
	 x="0px" y="0px" viewBox="0 0 64 64" style="enable-background:new 0 0 64 64;" xml:space="preserve">
<g>
	<path d="M56,3.7H8c-3.4,0-6.3,2.8-6.3,6.3v44.1c0,3.4,2.8,6.3,6.3,6.3h48c3.4,0,6.3-2.8,6.3-6.3V9.9C62.3,6.5,59.4,3.7,56,3.7z
		 M8,8.2h48c1,0,1.8,0.8,1.8,1.8v6.2H6.3V9.9C6.3,9,7,8.2,8,8.2z M56,55.8H8c-1,0-1.8-0.8-1.8-1.8V20.6h51.5v33.4
		C57.8,55,57,55.8,56,55.8z"/>
	<path d="M21,45.9h-0.1v-5c0-0.6-0.2-1.1-0.6-1.5l-1.5-1.6l1.5-1.6c0.4-0.4,0.6-1,0.6-1.5v-4.4H21c1.2,0,2.3-1,2.3-2.3
		s-1-2.3-2.3-2.3h-2.4c-1.2,0-2.3,1-2.3,2.3v5.8l-2.2,2.5c-0.8,0.9-0.8,2.2,0,3l2.2,2.5v6.4c0,1.2,1,2.3,2.3,2.3H21
		c1.2,0,2.3-1,2.3-2.3S22.2,45.9,21,45.9z"/>
	<path d="M47.6,33.8V28c0-1.2-1-2.3-2.3-2.3H43c-1.2,0-2.3,1-2.3,2.3s1,2.3,2.3,2.3h0.1v4.4c0,0.6,0.2,1.1,0.6,1.5l1.5,1.6l-1.5,1.6
		c-0.4,0.4-0.6,1-0.6,1.5v5H43c-1.2,0-2.3,1-2.3,2.3s1,2.3,2.3,2.3h2.4c1.2,0,2.3-1,2.3-2.3v-6.4l2.2-2.5c0.8-0.9,0.8-2.2,0-3
		L47.6,33.8z"/>
</g>
</svg>
