<?xml version="1.0" encoding="utf-8"?>
<!-- Generator: Adobe Illustrator 22.0.0, SVG Export Plug-In . SVG Version: 6.00 Build 0)  -->
<svg version="1.1" id="lni_lni-add-files" xmlns="http://www.w3.org/2000/svg" xmlns:xlink="http://www.w3.org/1999/xlink" x="0px"
	 y="0px" viewBox="0 0 64 64" style="enable-background:new 0 0 64 64;" xml:space="preserve">
<g>
	<path d="M54.9,16.6L41.1,3c-0.8-0.8-1.9-1.2-3-1.2h-24c-3.4,0-6.3,2.8-6.3,6.3v48c0,3.4,2.8,6.3,6.3,6.3h35.7
		c3.4,0,6.3-2.8,6.3-6.3V19.6C56.1,18.5,55.7,17.4,54.9,16.6z M41.2,9.4l7.5,7.4h-7.5V9.4z M49.9,57.8H14.1c-1,0-1.8-0.8-1.8-1.8V8
		c0-1,0.8-1.8,1.8-1.8h22.6V19c0,1.2,1,2.3,2.3,2.3h12.7V56C51.6,57,50.8,57.8,49.9,57.8z"/>
	<path d="M38.9,29.1H21.6c-1.2,0-2.3,1-2.3,2.3s1,2.3,2.3,2.3h17.3c1.2,0,2.3-1,2.3-2.3S40.2,29.1,38.9,29.1z"/>
	<path d="M38.9,40.1H21.6c-1.2,0-2.3,1-2.3,2.3s1,2.3,2.3,2.3h17.3c1.2,0,2.3-1,2.3-2.3S40.2,40.1,38.9,40.1z"/>
</g>
</svg>
