<?xml version="1.0" encoding="utf-8"?>
<!-- Generator: Adobe Illustrator 22.0.0, SVG Export Plug-In . SVG Version: 6.00 Build 0)  -->
<svg version="1.1" id="lni_lni-folder-alt" xmlns="http://www.w3.org/2000/svg" xmlns:xlink="http://www.w3.org/1999/xlink" x="0px"
	 y="0px" viewBox="0 0 64 64" style="enable-background:new 0 0 64 64;" xml:space="preserve">
<path d="M61.8,24.2c-0.4-0.6-1.1-0.9-1.8-0.9h-3.9v-3.6c0-2.3-1.9-4.1-4.1-4.1H30.2l-3.4-6.3C26.1,7.9,24.7,7,23.2,7H7.8
	c-3.3,0-6,2.7-6,6V51c0,3.3,2.7,6,6,6h41c1.8,0,3.3-1.1,3.9-2.8l9.5-27.9C62.4,25.6,62.3,24.8,61.8,24.2z M6.3,13
	c0-0.8,0.7-1.5,1.5-1.5h15.2l3.9,7.3c0.4,0.7,1.2,1.2,2,1.2h22.7v3.2H19.9c-0.9,0-1.7,0.6-2.1,1.4l-11,27.4
	c-0.3-0.3-0.5-0.7-0.5-1.1V13z M48.5,52.5H14.3h-2.9l9.9-24.7h35.5L48.5,52.5z"/>
</svg>
