<?xml version="1.0" encoding="utf-8"?>
<!-- Generator: Adobe Illustrator 22.0.0, SVG Export Plug-In . SVG Version: 6.00 Build 0)  -->
<svg version="1.1" id="lni_lni-html5" xmlns="http://www.w3.org/2000/svg" xmlns:xlink="http://www.w3.org/1999/xlink" x="0px"
	 y="0px" viewBox="0 0 64 64" style="enable-background:new 0 0 64 64;" xml:space="preserve">
<g>
	<g>
		<path d="M32.5,47.3c-0.5,0-0.9-0.1-1.3-0.3l-8-3.2c-1.2-0.5-2-1.5-2.2-2.7l-0.9-5c-0.2-1.2,0.6-2.4,1.8-2.6
			c1.2-0.2,2.4,0.6,2.6,1.8l0.8,4.5l7.2,2.9l7.2-3l1.8-8.9H22.7c-1.7,0-3.2-1.2-3.5-3l-1.4-8c-0.2-1.1,0.1-2.3,0.8-3.2l0.1-0.1
			c0.8-0.8,1.8-1.3,3-1.3h23.2c1.2,0,2.3,1,2.3,2.3s-1,2.3-2.3,2.3H22.3l1.2,6.6h19.2c1.1,0,2.1,0.5,2.8,1.3c0.7,0.8,1,1.9,0.7,3
			L44.1,41c-0.2,1.2-1,2.2-2.1,2.6l-8,3.3C33.5,47.2,33,47.3,32.5,47.3z M32.2,42.8C32.2,42.8,32.2,42.8,32.2,42.8L32.2,42.8z
			 M22.1,18.9L22.1,18.9C22.1,18.9,22.1,18.9,22.1,18.9z"/>
	</g>
	<g>
		<path d="M32,62.2c-0.6,0-1.2-0.1-1.8-0.2l-15.8-3.7c-3.1-0.7-5.5-3.4-5.9-6.6L3.6,10.4C3.4,8.2,4.1,6,5.5,4.3
			C7,2.7,9.1,1.8,11.3,1.8h41.4c2.2,0,4.3,0.9,5.8,2.6c1.5,1.6,2.2,3.9,1.9,6l-4.9,41.3c-0.4,3.2-2.8,5.9-5.9,6.6h0L33.8,62
			C33.2,62.2,32.6,62.2,32,62.2z M11.3,6.3c-0.9,0-1.8,0.4-2.4,1.1C8.3,8,8,8.9,8.1,9.9L13,51.2c0.2,1.3,1.1,2.4,2.5,2.8l15.8,3.7
			c0.5,0.1,1,0.1,1.5,0L48.5,54c1.3-0.3,2.3-1.4,2.5-2.8l4.9-41.3C56,8.9,55.7,8,55.1,7.3c-0.6-0.7-1.5-1.1-2.4-1.1H11.3z M49,56.1
			L49,56.1L49,56.1z"/>
	</g>
</g>
</svg>
