<?xml version="1.0" encoding="utf-8"?>
<!-- Generator: Adobe Illustrator 22.0.0, SVG Export Plug-In . SVG Version: 6.00 Build 0)  -->
<svg version="1.1" id="lni_lni-image" xmlns="http://www.w3.org/2000/svg" xmlns:xlink="http://www.w3.org/1999/xlink" x="0px"
	 y="0px" viewBox="0 0 64 64" style="enable-background:new 0 0 64 64;" xml:space="preserve">
<style type="text/css">
	.st0{display:none;fill:none;stroke:#000000;stroke-width:3.5;stroke-miterlimit:10;}
</style>
<rect x="15.7" y="15.7" class="st0" width="32.6" height="32.6"/>
<g>
	<path d="M39.6,31.7c4.7,0,8.6-3.8,8.6-8.6s-3.8-8.6-8.6-8.6S31,18.5,31,23.2S34.9,31.7,39.6,31.7z M39.6,19.1
		c2.2,0,4.1,1.8,4.1,4.1s-1.8,4.1-4.1,4.1s-4.1-1.8-4.1-4.1S37.3,19.1,39.6,19.1z"/>
	<path d="M52.7,1.8H11.3C7.9,1.8,5.1,4.6,5.1,8v48c0,3.4,2.8,6.3,6.3,6.3h41.3c3.4,0,6.3-2.8,6.3-6.3V8C58.9,4.6,56.1,1.8,52.7,1.8z
		 M11.3,6.3h41.3c1,0,1.8,0.8,1.8,1.8v34.9l-7.3-6c-2.1-1.7-5.1-1.6-7,0.3l-8.2,8.1l-10.5-9.4c-2-1.8-5-1.8-7,0l-4.8,4.3V8
		C9.6,7,10.4,6.3,11.3,6.3z M52.7,57.8H11.3c-1,0-1.8-0.8-1.8-1.8v-9.7l7.8-7.1c0.3-0.3,0.7-0.3,1,0l12.1,10.8
		c0.4,0.4,1,0.6,1.5,0.6c0.6,0,1.1-0.2,1.6-0.7l9.7-9.6c0.3-0.3,0.7-0.3,1,0l10.1,8.4V56C54.4,57,53.6,57.8,52.7,57.8z"/>
</g>
</svg>
