<?xml version="1.0" encoding="utf-8"?>
<!-- Generator: Adobe Illustrator 22.0.0, SVG Export Plug-In . SVG Version: 6.00 Build 0)  -->
<svg version="1.1" id="Layer_1" xmlns="http://www.w3.org/2000/svg" xmlns:xlink="http://www.w3.org/1999/xlink" x="0px" y="0px"
	 viewBox="0 0 65 64" style="enable-background:new 0 0 65 64;" xml:space="preserve">
<g>
	<path d="M55.4,16.6L41.6,3c-0.8-0.8-1.9-1.2-3-1.2h-24c-3.4,0-6.3,2.8-6.3,6.3v23.5c0,1.2,1,2.3,2.3,2.3s2.3-1,2.3-2.3V8
		c0-1,0.8-1.8,1.8-1.8h22.6V19c0,1.2,1,2.3,2.3,2.3h12.7V31c0,1.2,1,2.3,2.3,2.3s2.3-1,2.3-2.3V19.6C56.6,18.5,56.2,17.4,55.4,16.6z
		 M41.7,9.4l7.5,7.4h-7.5V9.4z"/>
	<path d="M54.4,51.8c-1.2,0-2.3,1-2.3,2.3v2c0,1-0.8,1.8-1.8,1.8H14.6c-1,0-1.8-0.8-1.8-1.8v-1.4c0-1.2-1-2.3-2.3-2.3
		s-2.3,1-2.3,2.3V56c0,3.4,2.8,6.3,6.3,6.3h35.7c3.4,0,6.3-2.8,6.3-6.3v-2C56.6,52.8,55.6,51.8,54.4,51.8z"/>
	<path d="M45.5,38H51c1.2,0,2.3-1,2.3-2.3s-1-2.3-2.3-2.3h-5.5c-2.7,0-5,2.3-5,5v12.1c0,1.2,1,2.3,2.3,2.3s2.3-1,2.3-2.3v-6.3h3.8
		c1.2,0,2.3-1,2.3-2.3s-1-2.3-2.3-2.3H45v-1.3C45,38.3,45.2,38,45.5,38z"/>
	<path d="M31.9,52.9c3.5,0,6.4-2.9,6.4-6.5v-6.6c0-3.6-2.9-6.5-6.4-6.5h-4.6c-1.2,0-2.3,1-2.3,2.3v15.1c0,1.2,1,2.3,2.3,2.3H31.9z
		 M29.5,37.8h2.3c1,0,1.9,0.9,1.9,2v6.6c0,1.1-0.9,2-1.9,2h-2.3V37.8z"/>
	<path d="M14,52.9c1.2,0,2.3-1,2.3-2.3v-6h4.9c1.2,0,2.3-1,2.3-2.3v-6.6c0-1.2-1-2.3-2.3-2.3H14c-1.2,0-2.3,1-2.3,2.3v14.9
		C11.8,51.9,12.8,52.9,14,52.9z M16.3,38h2.6v2.1h-2.6V38z"/>
</g>
</svg>
