<?xml version="1.0" encoding="utf-8"?>
<!-- Generator: Adobe Illustrator 22.0.0, SVG Export Plug-In . SVG Version: 6.00 Build 0)  -->
<svg version="1.1" id="lni_lni-presentation" xmlns="http://www.w3.org/2000/svg" xmlns:xlink="http://www.w3.org/1999/xlink"
	 x="0px" y="0px" viewBox="0 0 64 64" style="enable-background:new 0 0 64 64;" xml:space="preserve">
<path d="M57,5.5H7c-2.9,0-5.3,2.4-5.3,5.3v6.4c0,1.2,1,2.3,2.3,2.3h0.2v20.3c0,2.9,2.4,5.3,5.3,5.3h20.3v5.5L25,54.5
	c-1,0.8-1.1,2.2-0.3,3.2c0.4,0.5,1.1,0.8,1.7,0.8c0.5,0,1-0.2,1.4-0.5l4.1-3.4l4.1,3.4c1,0.8,2.4,0.7,3.2-0.3c0.8-1,0.7-2.4-0.3-3.2
	l-4.7-3.9V45h20.3c2.9,0,5.3-2.4,5.3-5.3V19.5H60c1.2,0,2.3-1,2.3-2.3v-6.4C62.3,7.9,59.9,5.5,57,5.5z M6.3,10.8
	C6.3,10.4,6.6,10,7,10h50c0.4,0,0.8,0.3,0.8,0.8V15h-0.1c0,0-0.1,0-0.1,0H6.4c0,0-0.1,0-0.1,0H6.3V10.8z M55.3,39.8
	c0,0.4-0.3,0.8-0.8,0.8H9.4c-0.4,0-0.8-0.3-0.8-0.8V19.5h46.6V39.8z"/>
</svg>
