<?xml version="1.0" encoding="utf-8"?>
<!-- Generator: Adobe Illustrator 22.0.0, SVG Export Plug-In . SVG Version: 6.00 Build 0)  -->
<svg version="1.1" id="Layer_1" xmlns="http://www.w3.org/2000/svg" xmlns:xlink="http://www.w3.org/1999/xlink" x="0px" y="0px"
	 viewBox="0 0 65 64" style="enable-background:new 0 0 65 64;" xml:space="preserve">
<g>
	<path d="M10.6,29.8c1.2,0,2.3-1,2.3-2.3V8c0-1,0.8-1.8,1.8-1.8h22.6V19c0,1.2,1,2.3,2.3,2.3h12.7V27c0,1.2,1,2.3,2.3,2.3
		s2.3-1,2.3-2.3v-7.4c0-1.1-0.5-2.2-1.3-3L41.6,3c-0.8-0.8-1.9-1.2-3-1.2h-24c-3.4,0-6.3,2.8-6.3,6.3v19.5
		C8.4,28.7,9.4,29.8,10.6,29.8z M41.7,9.4l7.5,7.4h-7.5V9.4z"/>
	<path d="M54.4,51.8c-1.2,0-2.3,1-2.3,2.3v2c0,1-0.8,1.8-1.8,1.8H14.6c-1,0-1.8-0.8-1.8-1.8v-1.4c0-1.2-1-2.3-2.3-2.3
		s-2.3,1-2.3,2.3V56c0,3.4,2.8,6.3,6.3,6.3h35.7c3.4,0,6.3-2.8,6.3-6.3v-2C56.6,52.8,55.6,51.8,54.4,51.8z"/>
	<path d="M56.7,30.3h-4.6c-1.2,0-2.3,1-2.3,2.3v15.1c0,1.2,1,2.3,2.3,2.3h4.6c3.5,0,6.4-2.9,6.4-6.5v-6.6
		C63.1,33.2,60.2,30.3,56.7,30.3z M58.6,43.4c0,1.1-0.9,2-1.9,2h-2.3V34.8h2.3c1,0,1.9,0.9,1.9,2V43.4z"/>
	<path d="M47.1,39.4v-6.6c0-1.2-1-2.3-2.3-2.3h-7.1c-1.2,0-2.3,1-2.3,2.3v14.9c0,1.2,1,2.3,2.3,2.3s2.3-1,2.3-2.3v-5.3l4,6.5
		c0.4,0.7,1.2,1.1,1.9,1.1c0.4,0,0.8-0.1,1.2-0.3c1.1-0.7,1.4-2,0.7-3.1l-3-4.8h0C46.1,41.7,47.1,40.7,47.1,39.4z M40,35h2.6v2.1H40
		V35z"/>
	<path d="M20.5,36.8v6.9c0,3.5,2.8,6.3,6.3,6.3s6.3-2.8,6.3-6.3v-6.9c0-3.5-2.8-6.3-6.3-6.3S20.5,33.4,20.5,36.8z M28.6,36.8v6.9
		c0,1-0.8,1.8-1.8,1.8S25,44.7,25,43.7v-6.9c0-1,0.8-1.8,1.8-1.8S28.6,35.8,28.6,36.8z"/>
	<path d="M10.5,48.2l0.3-1.4l0.3,1.4c0.2,1,1.1,1.7,2.1,1.8c1,0,2-0.6,2.2-1.6l4-14.1c0.3-1.2-0.4-2.4-1.6-2.8
		c-1.2-0.3-2.4,0.4-2.8,1.6l-1.5,5.4l-0.7-3.1c-0.2-1-1.1-1.8-2.2-1.8c0,0,0,0,0,0c-1.1,0-2,0.8-2.2,1.8l-0.6,3.1L6.3,33
		c-0.3-1.2-1.6-1.9-2.8-1.5C2.4,31.8,1.7,33,2,34.2l4.1,14.1c0.3,1,1.2,1.6,2.2,1.6c0,0,0.1,0,0.1,0C9.4,49.9,10.3,49.2,10.5,48.2z"
		/>
</g>
</svg>
