<?xml version="1.0" encoding="utf-8"?>
<!-- Generator: Adobe Illustrator 22.0.0, SVG Export Plug-In . SVG Version: 6.00 Build 0)  -->
<svg version="1.1" id="lni_lni-zip" xmlns="http://www.w3.org/2000/svg" xmlns:xlink="http://www.w3.org/1999/xlink" x="0px"
	 y="0px" viewBox="0 0 64 64" style="enable-background:new 0 0 64 64;" xml:space="preserve">
<path d="M56.3,11.6h-3.4V9.4c0-4.2-3.4-7.6-7.6-7.6H10.8c-4.2,0-7.6,3.4-7.6,7.6v30.7c0,1.4,0.6,2.7,1.6,3.6L23,60.9
	c0.9,0.9,2.1,1.3,3.4,1.3h18.8c4.2,0,7.6-3.4,7.6-7.6V34.5h3.4c1.4,0,2.5-1.1,2.5-2.5V14.2C58.8,12.8,57.7,11.6,56.3,11.6z
	 M10.3,42.8H23c0.2,0,0.4,0.2,0.4,0.4v11.9L10.3,42.8z M48.4,54.6c0,1.7-1.4,3.1-3.1,3.1H28V43.2c0-2.7-2.2-4.9-4.9-4.9H7.6V9.4
	c0-1.7,1.4-3.1,3.1-3.1h34.5c1.7,0,3.1,1.4,3.1,3.1v2.3H18.1c-1.4,0-2.5,1.1-2.5,2.5V32c0,1.4,1.1,2.5,2.5,2.5h30.3V54.6z
	 M38.4,19.3v7.6c0,1.4-1.1,2.5-2.5,2.5s-2.5-1.1-2.5-2.5v-7.6c0-1.4,1.1-2.5,2.5-2.5S38.4,17.9,38.4,19.3z M30.8,26.9
	c0,1.4-1.1,2.5-2.5,2.5H24c-0.9,0-1.8-0.5-2.2-1.3c-0.4-0.8-0.4-1.8,0.1-2.6l2.3-3.8h-0.9c-1.4,0-2.5-1.1-2.5-2.5
	c0-1.4,1.1-2.5,2.5-2.5h5.5c0.9,0,1.8,0.5,2.2,1.3c0.4,0.8,0.4,1.8-0.1,2.6l-2.3,3.8C29.8,24.5,30.8,25.6,30.8,26.9z M48.6,26.9
	h-2.5c0,1.4-1.1,2.5-2.5,2.5S41,28.3,41,26.9v-2.5v-5.1c0-1.4,1.1-2.5,2.5-2.5h5.1c2.8,0,5.1,2.3,5.1,5.1
	C53.7,24.6,51.4,26.9,48.6,26.9z"/>
</svg>
